<svg xmlns="http://www.w3.org/2000/svg" viewBox="0 0 24 24" width="24" height="24">
  <path fill="#2AAE67" d="M9.5,7.5c-3.59,0-6.5,2.69-6.5,6a5.67,5.67,0,0,0,2.61,4.74l-.65,1.93,2.25-1.12a6.63,6.63,0,0,0,2.29.4c.15,0,.3,0,.45,0a4.6,4.6,0,0,1-.18-1.3A6.33,6.33,0,0,1,16,11.84a5.46,5.46,0,0,0-6.5-4.34ZM7.61,9.71a.79.79,0,1,1,.77-.79A.79.79,0,0,1,7.61,9.71Zm3.77,0a.79.79,0,1,1,.78-.79A.78.78,0,0,1,11.38,9.71Z"/>
  <path fill="#2AAE67" d="M18,12.22H18c-3,0-5.38,2-5.38,4.5s2.41,4.5,5.38,4.5a6.55,6.55,0,0,0,1.9-.29L22,22l-.53-1.6a4.3,4.3,0,0,0,1.87-3.68C23.33,14.24,21,12.22,18,12.22Zm-1.8,1.93a.61.61,0,0,1,.6-.61.61.61,0,0,1,0,1.22A.61.61,0,0,1,16.19,14.15Zm3.6,0A.61.61,0,1,1,20.4,15,.61.61,0,0,1,19.79,14.15Z"/>
</svg> 